<?xml version="1.0" encoding="UTF-8" standalone="no"?>
<!DOCTYPE svg PUBLIC "-//W3C//DTD SVG 1.1//EN" "http://www.w3.org/Graphics/SVG/1.1/DTD/svg11.dtd">
<svg width="100%" height="100%" viewBox="0 0 1536 1674" version="1.1" xmlns="http://www.w3.org/2000/svg" xmlns:xlink="http://www.w3.org/1999/xlink" xml:space="preserve" style="fill-rule:evenodd;clip-rule:evenodd;stroke-linejoin:round;stroke-miterlimit:1.41421;">
    <g transform="matrix(4.17391,0,0,4.17456,-1544.35,196.204)">
        <path d="M628.576,106.794C628.576,106.794 619.643,145.457 615.899,145.457L591.712,145.098C584.512,145.098 580.768,145.098 580.192,145.386C579.904,145.674 577.888,152.586 574.72,166.41C574.72,166.986 570.4,182.25 562.048,212.202C555.424,235.53 552.256,249.642 552.256,254.25C552.256,257.418 553.12,258.858 556.576,258.858C558.304,258.858 563.776,256.554 573.28,252.234C582.784,247.626 589.408,245.322 592.864,245.322C597.184,245.322 598.912,247.914 598.624,252.81C597.76,261.738 596.608,268.938 595.168,274.41C593.152,284.202 589.984,290.538 586.24,293.706C578.752,299.466 567.52,304.362 552.832,308.682C539.296,312.426 514.824,318.83 493.504,308.97C478.132,301.86 475.318,293.689 475.218,293.343C473.083,286.023 472.397,287.667 471.328,274.122C470.603,264.934 475.648,244.17 484,211.914C490.048,190.314 495.808,168.426 501.568,146.826L482.56,147.402C477.664,147.402 471.328,143.37 471.328,138.474L471.328,135.882C471.328,132.714 472.768,126.666 475.648,117.738C478.816,108.81 481.12,104.202 482.56,103.338C485.152,101.898 489.472,101.034 494.944,101.034C496.075,101.034 508.192,101.034 508.192,101.034C510.208,100.746 512.224,100.458 513.664,100.17C521.99,74.913 535.776,17.799 540.96,15.783L602.656,-10.71C608.416,-13.302 612.736,-13.878 615.904,-13.014C620.224,-11.574 621.952,-8.982 620.8,-4.662C611.094,29.731 599.428,75.782 593.366,98.228C594.806,98.228 607.843,98.571 610.72,98.442C623.073,97.884 631.477,98.355 628.576,106.794ZM612.306,137.179C613.458,135.739 621.376,106.794 621.376,106.794C618.784,106.506 608.704,106.506 590.848,106.506C585.01,106.506 583.936,105.354 583.648,103.338L613.6,-6.39C612.16,-6.678 606.4,-4.662 596.608,-0.054C594.88,0.81 589.696,3.114 581.056,6.57C569.536,11.178 560.32,15.21 553.12,18.954C550.528,19.818 547.936,21.258 545.056,23.274C543.904,25.866 539.296,40.842 530.944,68.778C523.744,93.258 519.855,106.936 518.127,108.088C516.687,108.088 496.384,108.234 494.944,108.234C490.624,108.234 487.744,108.81 486.304,109.674C481.12,119.759 478.169,132.365 478.169,132.365C474.383,139.437 481.12,140.202 482.56,140.202C483.424,140.202 487.168,140.202 493.792,139.914C500.704,139.626 504.448,139.338 505.312,139.338C508.192,139.626 509.632,140.778 509.632,142.794C509.632,147.978 503.296,173.034 490.624,217.962C482.56,245.898 478.528,264.618 478.528,274.122C478.528,274.986 475.089,294.796 494.388,302.496C520.897,313.073 550.816,303.21 567.808,295.146C570.4,294.282 573.856,292.554 578.176,290.538C581.92,287.946 583.936,286.218 584.224,285.354C587.68,275.85 589.984,264.618 591.424,252.234C585.376,255.114 579.616,257.994 573.568,260.586C565.792,264.33 560.32,266.058 556.576,266.058C548.8,266.058 545.056,262.026 545.056,254.25C545.056,250.794 548.512,236.682 555.136,211.626C563.488,180.522 567.808,164.97 567.808,164.682C571.264,149.994 573.568,141.93 574.72,140.49C576.16,138.762 581.632,137.898 591.712,137.898L612.306,137.179ZM614.176,113.706C612.16,120.33 610.432,126.09 608.704,130.698L591.712,130.698C585.088,130.698 580.768,130.698 579.328,130.986C574.72,131.562 571.264,133.29 568.96,136.17C566.656,139.05 560.896,159.21 551.392,196.362C542.464,232.362 537.856,251.658 537.856,254.25C537.856,266.922 544.192,273.258 556.576,273.258C562.048,273.258 570.4,270.378 582.208,264.618C580.768,272.394 579.04,278.442 577.6,282.762C576.736,283.05 575.872,283.626 574.432,284.49C568.384,288.522 559.168,292.266 546.784,295.434C535.264,298.602 525.76,300.042 518.272,300.042C513.376,300.042 509.513,300.966 501.785,298.67C493.441,296.191 488.468,289.174 487.604,286.006C485.012,276.502 485.077,277.769 485.728,267.498C486.525,254.931 489.76,247.05 497.536,219.69C510.496,174.474 516.832,148.842 516.832,142.794C516.832,138.186 514.528,135.018 510.208,133.29C508.768,132.714 507.04,132.426 505.312,132.426C505.6,132.426 499.264,132.714 486.592,133.002C487.456,130.41 489.184,124.362 491.776,115.434L494.944,115.434C496.384,115.434 510.496,115.146 510.496,115.146C513.952,114.858 521.647,114.57 522.799,114.57C527.695,114.57 528.928,101.322 537.28,75.114L551.104,27.594L551.392,27.306C570.976,18.378 586.031,11.822 604.751,4.046C600.125,19.187 593.728,41.994 576.736,101.61C576.448,102.474 576.16,103.626 576.16,104.49C576.16,110.538 583.36,114.858 589.984,113.994L614.176,113.706Z" style="fill-rule:nonzero;"/>
    </g>
</svg>
